<?xml version="1.0" encoding="utf-8"?>
<!-- Generator: Adobe Illustrator 16.0.0, SVG Export Plug-In . SVG Version: 6.00 Build 0)  -->
<!DOCTYPE svg PUBLIC "-//W3C//DTD SVG 1.1//EN" "http://www.w3.org/Graphics/SVG/1.1/DTD/svg11.dtd">
<svg version="1.1" id="Layer_1" xmlns="http://www.w3.org/2000/svg" xmlns:xlink="http://www.w3.org/1999/xlink" x="0px" y="0px"
	 width="1000px" height="257px" viewBox="0 0 1000 257" enable-background="new 0 0 1000 257" xml:space="preserve">
<g>
	<path fill="#D0AD56" d="M963.416,58.914v2.642h5.117v13.338h3.176V61.556h5.117v-2.642H963.416z M997.293,74.894l-1.236-15.98
		h-4.586l-2.765,7.871c-0.353,1.176-0.707,2.527-1.118,3.999h-0.059c-0.413-1.648-0.703-2.823-1.06-4.055l-2.764-7.814h-4.762
		l-1.178,15.98h3.058l0.59-9.402c0.059-1.469,0.117-2.995,0.117-4.464h0.177c0.352,1.411,0.823,3.291,1.111,4.523l2.888,9.107h3.294
		l2.88-8.872c0.472-1.467,0.943-3.347,1.352-4.758h0.179c0.061,1.704,0.061,3.23,0.118,4.464l0.588,9.402H997.293z"/>
	<path fill="#D0AD56" d="M515.745,201.119c-4.773,13.251-10.078,23.321-22.276,24.911c-2.122,0.265-5.834,0.532-7.69,0.532
		c-1.326,0-2.388,0.527-2.388,1.589c0,1.593,1.59,2.12,5.04,2.12c12.464,0,27.052-0.795,29.967-0.795
		c2.916,0,14.322,0.795,20.688,0.795c2.382,0,3.975-0.451,3.975-2.048c0-1.057-0.796-1.513-2.652-1.513h-2.65
		c-4.51,0-10.078-2.46-10.078-7.762c0-4.768,1.325-11.167,3.712-17.795l15.911-47.006c0.532-1.323,1.327-2.218,2.656-2.218h57.015
		c1.327,0,1.856,0.607,2.387,1.67l24.663,65.236c1.593,4.241,0,6.645-1.591,7.173c-1.061,0.266-1.856,0.808-1.856,1.866
		c0,1.59,2.917,1.596,7.956,1.862c18.3,0.528,37.66,0.531,41.635,0.531c2.919,0,5.305-0.529,5.305-2.12
		c0-1.323-1.059-1.587-2.65-1.587c-2.654,0-6.629-0.268-10.608-1.594c-5.567-1.588-13.261-5.826-22.807-29.418
		c-16.177-40.283-57.813-149.739-61.791-159.813c-3.183-8.214-4.244-9.54-5.835-9.54c-1.593,0-2.653,1.589-5.835,10.335
		L515.745,201.119z M552.875,143.846c-0.799,0-1.329-1.181-0.799-2.504l23.341-71.882c1.325-3.976,2.65-4.137,3.977-0.162
		l25.194,72.124c0.265,1.061,0.265,2.424-1.063,2.424H552.875z"/>
	<path fill="#D0AD56" d="M699.137,164.811c0,21.729-0.053,39.487-1.381,48.762c-1.061,6.625-1.62,10.868-6.13,11.93
		c-2.121,0.528-5.051,1.058-7.173,1.058c-1.328,0-10.24,1.062-10.24,1.855c0,1.325,1.322,1.857,3.707,1.857
		c7.161,0,31.185-0.794,31.45-0.794c1.061,0,15.909,0.794,28.639,0.794c2.653,0,3.712-0.794,3.712-1.857
		c0-0.794-0.268-1.855-1.855-1.855c-2.12,0-7.16-0.529-10.343-1.058c-7.161-1.062-8.394-5.305-9.189-11.93
		c-1.059-9.274-0.971-26.766-0.971-48.497v-5.301c0-1.325,0.44-1.856,1.503-1.856l29.653,0.531c1.59,0,2.1,0.265,3.161,1.325
		c5.037,6.095,15.368,20.672,25.183,32.862c13.256,16.961,21.04,26.266,30.544,32.536c6.544,4.315,12.394,5.364,25.654,5.364
		l13.743-0.131c4.241,0,6.954-0.075,6.954-1.398c0-0.795-0.798-2.15-2.122-2.15s-3.713-0.147-8.226-0.943
		c-5.831-0.795-13.52-2.988-25.984-15.713c-13.528-14.045-29.702-34.49-48.797-58.34c21.746-18.552,28.642-34.74,28.642-51.437
		c0-15.635-10.343-26.512-16.177-30.751c-12.2-8.481-28.643-9.81-43.494-9.81c-7.158,0-26.785,0.525-29.169,0.525
		c-1.331,0-16.975-0.531-27.583-0.531c-2.653,0.003-3.713,0.531-3.713,1.855c0,0.795,1.06,1.858,1.857,1.858
		c2.119,0,6.098,0.263,7.954,0.527c7.689,1.06,9.075,4.771,9.607,12.456c0.53,7.156,0.583,13.516,0.583,48.502V164.811z
		 M721.389,71.783c0-1.324,0.738-2.119,1.796-2.649c2.39-0.531,9.784-1.328,16.681-1.328c24.928,0,40.299,16.169,40.299,44.262
		c0,17.228-6.109,29.154-14.064,34.452c-5.568,3.71-11.937,3.978-17.503,3.978c-10.347,0-22.228-1.592-25.672-3.447
		c-1.06-0.795-1.536-1.59-1.536-2.914V71.783z"/>
	<path fill="#D0AD56" d="M891.272,70.193l28.86,0.53c22.277,0.531,27.159,5.564,27.955,12.457l0.187,2.387
		c0.266,3.179,0.757,3.974,1.817,3.974c1.06,0,2.104-1.06,2.104-2.914c0-2.65,0.785-18.818,0.785-25.71
		c0-1.325-0.002-2.648-1.066-2.648c-1.062,0-3.186,0.826-6.632,1.355c-3.712,0.529-9.017,1.354-16.71,1.354h-88.048
		c-2.65,0-11.666-0.559-18.299-1.354c-6.362-0.795-8.75-2.799-10.34-2.799c-0.797,0-2.121,2.842-2.386,4.166
		c-0.535,1.857-5.04,21.96-5.04,24.346c0,1.328,1.06,1.839,1.589,1.839c1.061,0,1.856-0.275,2.39-2.132
		c0.796-1.589,1.062-3.185,3.711-7.16c3.449-5.301,8.813-6.893,23.399-7.158l33.478-0.533v94.618
		c0,21.729,0.203,39.487-0.859,48.762c-0.794,6.628-2.018,11.136-6.791,12.192c-2.123,0.532-4.725,1.062-6.846,1.062
		c-1.325,0-1.83,0.795-1.83,1.589c0,1.325,1.073,1.856,3.728,1.856c6.894,0,23.078-0.795,24.138-0.795
		c1.325,0,16.18,0.795,28.911,0.795c2.65,0,3.714-0.795,3.714-1.856c0-0.794-0.266-1.855-1.856-1.855
		c-2.122,0-7.428-0.529-10.608-1.058c-7.161-1.062-7.909-5.302-8.705-11.93c-1.059-9.274-0.748-27.032-0.748-48.762V70.193z"/>
	<path fill="#D0AD56" d="M216.192,33.354c-0.528-5.036-1.327-7.156-3.182-7.156c-1.856,0-2.917,1.856-3.978,4.242l-77.97,166.436
		L49.914,30.173c-1.327-2.914-2.388-3.975-3.979-3.975c-1.592,0-2.653,1.856-2.917,4.771l-19.095,172.8
		c-1.062,10.07-1.856,20.406-10.607,21.996c-3.978,0.795-5.836,0.795-7.957,0.795c-1.325,0-2.652,0.533-2.652,1.328
		c0,1.856,1.856,2.384,4.51,2.384c7.16,0,19.889-0.793,22.275-0.793c2.122,0,14.851,0.793,24.665,0.793
		c3.184,0,4.772-0.527,4.772-2.384c0-0.795-1.06-1.328-2.121-1.328c-1.59,0-5.568-0.263-10.077-1.324
		c-3.979-0.795-6.895-4.241-6.895-8.218c0-4.504,0-8.943,0.265-13.185L50.709,81.19h1.061c2.917,8.083,32.62,70.432,35.007,75.204
		c1.324,2.65,24.132,48.335,31.026,61.321c5.04,9.541,6.365,12.109,8.222,12.109c2.387,0,3.183-1.781,8.753-13.444L199.75,79.168
		h0.795l12.73,136.908c0.53,4.77,0.266,8.952-1.06,9.215c-1.327,0.267-1.856,0.639-1.856,1.694c0,1.329,1.323,2.042,7.425,2.57
		c9.811,0.794,38.453,1.021,44.287,1.021c3.183,0,5.571-0.815,5.571-2.405c0-1.06-0.795-1.336-2.123-1.336
		c-2.654,0-9.547-0.004-17.237-2.39c-11.404-3.709-13.26-18.555-14.321-28.098L216.192,33.354z"/>
	<path fill="#D0AD56" d="M280.496,164.811c0,21.729,0.711,39.489-0.616,48.762c-1.061,6.628-1.236,11.134-5.744,11.93
		c-2.123,0.263-6.596,1.329-8.718,1.329c-1.326,0-8.409,0.79-8.409,1.584c0,1.325,1.302,2.078,3.688,2.078
		c3.714,0,17.486-0.487,21.996-0.753c5.039-0.264,9.557-0.264,10.087-0.264c3.449,0,9.552,0,19.366,0.529
		c9.545,0.266,23.073,0.796,40.577,0.796c9.017,0,11.405,0,12.997-5.833c1.326-4.769,3.183-20.14,3.183-21.731
		c0-1.589-0.263-3.446-1.589-3.446c-1.328,0-1.857,0.795-2.388,3.446c-1.324,9.012-4.508,12.988-10.607,15.638
		c-6.098,2.385-17.236,2.385-23.338,2.385c-23.071,0-27.509-2.916-28.042-18.022c-0.263-4.502-0.194-30.743-0.194-38.427v-18.818
		c0-0.794,0.46-1.589,1.787-1.589c3.978,0,29.004,0.265,35.369,1.059c9.017,1.059,11.186,3.71,11.983,6.892
		c1.062,2.914,1.085,5.301,1.085,7.418c0,1.328,0.541,2.123,1.602,2.123c1.593,0,2.13-2.386,2.13-4.24
		c0-1.592,0.534-10.07,1.063-14.578c0.53-7.421,1.858-11.131,1.858-12.455c0-1.326-0.529-1.855-1.326-1.855
		c-0.795,0-1.855,1.325-3.446,2.914c-2.388,2.386-5.834,2.65-11.405,3.18c-5.304,0.533-36.26,0.533-39.177,0.533
		c-1.328,0-1.521-0.795-1.521-2.386V71.783c0-1.589,0.46-2.384,1.521-2.384c2.651,0,29.798,0.266,33.778,0.795
		c12.729,1.589,15.165,3.18,16.756,6.89c1.061,2.65,1.35,6.359,1.35,7.95c0,1.857,0.542,2.915,1.868,2.915
		c1.062,0,1.865-1.323,2.127-2.383c0.531-2.651,1.065-12.721,1.329-14.843c0.531-6.361,1.859-9.012,1.859-10.602
		c0-1.059-0.264-2.12-1.059-2.12c-1.062,0-2.124,0.795-3.184,1.061c-1.855,0.264-6.099,1.059-10.608,1.325
		c-5.305,0.267-54.101,0-55.691,0c-1.327,0-16.443-0.528-27.051-0.528c-2.65,0-3.712,0.528-3.712,1.853
		c0,0.794,1.062,1.856,1.856,1.856c2.122,0,6.099,0.267,7.955,0.531c7.691,1.06,8.308,4.768,8.836,12.456
		c0.532,7.156-0.179,13.516-0.179,48.502V164.811z"/>
	<path fill="#D0AD56" d="M454.426,70.193l28.692,0.53c22.275,0.531,27.074,5.564,27.869,12.457l0.146,2.387
		c0.266,3.179,0.736,3.974,1.797,3.974s2.093-1.06,2.093-2.914c0-2.65,0.781-18.818,0.781-25.71c0-1.325-0.01-2.648-1.071-2.648
		c-1.059,0-3.185,0.826-6.634,1.355c-3.712,0.529-9.018,1.354-16.71,1.354h-88.045c-2.651,0-11.668-0.559-18.3-1.354
		c-6.363-0.795-8.751-2.799-10.343-2.799c-0.795,0-2.119,2.842-2.385,4.166c-0.532,1.857-5.038,21.96-5.038,24.346
		c0,1.328,1.06,1.839,1.59,1.839c1.061,0,1.856-0.275,2.388-2.132c0.794-1.589,1.061-3.185,3.711-7.16
		c3.449-5.301,8.98-6.893,23.566-7.158l33.645-0.533v94.618c0,21.729,0.037,39.487-1.025,48.762
		c-0.795,6.628-2.102,11.136-6.877,12.192c-2.119,0.532-4.763,1.062-6.885,1.062c-1.326,0-1.852,0.795-1.852,1.589
		c0,1.325,1.063,1.856,3.716,1.856c6.895,0,23.073-0.795,24.133-0.795c1.325,0,16.178,0.795,28.908,0.795
		c2.651,0,3.711-0.795,3.711-1.856c0-0.794-0.265-1.855-1.855-1.855c-2.123,0-7.427-0.529-10.61-1.058
		c-7.158-1.062-7.739-5.302-8.535-11.93c-1.06-9.274-0.581-27.032-0.581-48.762V70.193z"/>
</g>
</svg>
